<?xml version="1.0" encoding="UTF-8" standalone="no"?>
<svg
   xmlns:dc="http://purl.org/dc/elements/1.1/"
   xmlns:cc="http://creativecommons.org/ns#"
   xmlns:rdf="http://www.w3.org/1999/02/22-rdf-syntax-ns#"
   xmlns:svg="http://www.w3.org/2000/svg"
   xmlns="http://www.w3.org/2000/svg"
   height="512"
   width="512"
   xml:space="preserve"
   viewBox="0 0 512 512"
   y="0px"
   x="0px"
   id="Capa_1"
   version="1.1"><metadata
     id="metadata871"><rdf:RDF><cc:Work
         rdf:about=""><dc:format>image/svg+xml</dc:format><dc:type
           rdf:resource="http://purl.org/dc/dcmitype/StillImage" /><dc:title></dc:title></cc:Work></rdf:RDF></metadata><defs
     id="defs869" /><g
     transform="matrix(1.25,0,0,-1.25,0,45)"
     id="g830"><g
       id="g816"><path
         id="path812"
         d="m 113.8,-102.4 c 34.1,-56.9 0,-121.7 -34.15,-110.3 -34.13,11.4 -45.51,-22.8 -11.38,-34.1 34.13,-11.4 107.73,5.2 147.93,45.5 11.4,11.3 22.7,11.3 22.7,11.3 z"
         style="fill:#553788" /><path
         id="path814"
         d="m 295.8,-102.4 c -34.1,-56.9 0,-121.7 34.2,-110.3 34.1,11.4 45.5,-22.8 11.3,-34.1 -34.1,-11.4 -107.7,5.2 -147.9,45.5 -11.4,11.3 -22.7,11.3 -22.7,11.3 z"
         style="fill:#553788" /></g><g
       id="g822"><path
         id="path818"
         d="m 343.5,-148 c -34.1,-56.8 0,-121.6 34.1,-110.2 34.2,11.4 45.5,-22.8 11.4,-34.2 -34.1,-11.3 -107.7,5.3 -147.9,45.6 -11.4,11.3 -22.8,11.3 -22.8,11.3 z"
         style="fill:#744eaa" /><path
         id="path820"
         d="m 66.12,-148 c 34.18,-56.8 0,-121.6 -34.13,-110.2 -34.135,11.4 -45.51,-22.8 -11.38,-34.2 34.13,-11.3 107.69,5.3 147.89,45.6 11.4,11.3 22.8,11.3 22.8,11.3 z"
         style="fill:#744eaa" /></g><path
       id="path824"
       d="m 377.6,-322.9 c -31,-10.3 -73.1,64 -54.7,120.4 18.7,36.9 29.8,78 29.8,111.44 0,81.691 -66.2,125.16 -147.9,125.16 -81.7,0 -147.9,-43.468 -147.9,-125.16 0,-33.44 11.13,-74.54 29.86,-111.44 18.34,-56.4 -23.69,-130.7 -54.75,-120.4 -34.133,11.4 -45.51,-34.1 -11.38,-45.5 34.13,-11.4 94.57,7.1 136.57,45.5 24.9,22.8 47.6,22.8 47.6,22.8 0,0 22.8,0 47.7,-22.8 42,-38.4 102.4,-56.9 136.5,-45.5 34.1,11.4 22.8,56.9 -11.4,45.5"
       style="fill:#9266cc" /><path
       d="m 182,-204.8 c 0,-12.6 -10.1,-22.8 -22.7,-22.8 -12.6,0 -22.8,10.2 -22.8,22.8 0,12.5 10.2,22.7 22.8,22.7 12.6,0 22.7,-10.2 22.7,-22.7"
       style="fill:#292f33"
       id="SVGCleanerId_0" /><path
       id="SVGCleanerId_0_1_"
       style="fill:#292f33"
       d="m 281.1,-204.8 c 0,-12.6 -10.2,-22.8 -22.8,-22.8 -12.5,0 -22.7,10.2 -22.7,22.8 0,12.5 10.2,22.7 22.7,22.7 12.6,0 22.8,-10.2 22.8,-22.7" /></g><path
     style="fill:#292f33;fill-opacity:1"
     id="mustache"
     d="m 336.6,369.4 c -0.8,-1.5 -2.1,-2.4 -3.8,-2 0.7,-0.2 5.7,4.6 1.2,9.8 -1.2,1.4 -2.4,2.6 -4.2,3.2 -15.5,6 -25.3,-12.3 -36.1,-19.7 -8.3,-5.8 -19.8,-8.2 -28.2,-1.2 -1.5,1.3 -2.7,2.8 -3.6,4.4 -0.8,-1.6 -2,-3.1 -3.6,-4.4 -8.3,-7 -19.9,-4.6 -28.1,1.2 -10.7,7.4 -20.6,25.7 -36.1,19.7 -1.7,-0.6 -3,-1.8 -4.2,-3.2 -4.4,-5.2 0.6,-10 1.3,-9.8 -1.7,-0.4 -3.2,0.5 -3.9,2 -1,1.9 -1,4.1 -0.5,6.1 2.3,8.2 11,13.4 18.6,16 8,2.8 16.7,3.5 25,2.6 1.8,-0.2 3.6,-0.4 5.3,-0.7 8.5,-1.6 17.2,-5.1 23.1,-11.7 1.2,-1.4 2.3,-3 3.2,-4.7 0.8,1.7 1.8,3.3 3.1,4.7 5.9,6.6 14.5,10.1 23.2,11.7 1.7,0.3 3.5,0.5 5.2,0.7 8.3,0.9 17.1,0.2 25.1,-2.6 7.6,-2.6 16.3,-7.8 18.6,-16 0.5,-2 0.5,-4.2 -0.6,-6.1 z" /></svg>